<svg width="51" height="50" viewBox="0 0 51 50" fill="none" xmlns="http://www.w3.org/2000/svg">
<path d="M25.7144 49.4835C12.0491 49.4835 0.972656 38.4072 0.972656 24.7418C0.972656 11.0764 12.0491 0 25.7144 0C39.3798 0 50.4562 11.0764 50.4562 24.7418C50.4562 38.4072 39.3798 49.4835 25.7144 49.4835Z" fill="#BE875C"/>
<path d="M36.2701 27.6898C34.5243 28.4261 32.2402 27.2781 30.819 26.3082C30.2133 25.8965 29.473 25.3463 29.1445 24.6654C28.8753 24.1072 29.3266 24.0201 29.8412 23.9766C33.5703 23.648 35.13 28.7389 35.8148 31.5377C36.0722 32.5867 36.3018 33.7506 36.4086 34.7521C36.6739 34.6413 36.9431 34.5304 37.2083 34.4196C35.894 33.1132 34.1601 32.1117 32.4183 31.5099C30.9338 30.9953 29.3463 30.8093 27.7906 31.0468C27.0107 31.1655 26.3259 31.3674 25.5381 31.1814C24.8057 31.0111 24.1526 30.5994 23.6577 30.0373C22.5493 28.7824 22.4266 27.001 22.9254 25.4611C23.1075 24.9029 24.1684 22.5158 24.1367 22.3575C23.8596 20.9403 23.4598 18.2008 24.9997 17.3418C26.1042 16.7282 27.8183 17.2468 28.3606 18.379C28.5586 18.7907 28.6377 19.2539 28.6457 19.7051C28.6496 19.8516 28.6417 20.0021 28.6338 20.1485C28.6298 20.2356 28.6061 20.39 28.6219 20.2712C28.5269 20.8611 29.4295 21.1144 29.5245 20.5206C29.8174 18.6917 28.9901 16.7441 27.0582 16.3007C25.8548 16.0275 24.5049 16.1898 23.7329 17.2428C23.0877 18.1217 22.965 19.3053 22.9808 20.3662C22.9887 20.8928 23.0837 21.4113 23.1193 21.9339C23.1352 22.1556 23.1352 22.1556 23.1352 22.1556C23.1352 22.1556 22.4187 24.1705 22.2168 24.6693C21.8605 25.5482 21.6586 26.5062 21.7061 27.4562C21.7853 29.0199 22.5176 30.5124 23.82 31.4149C24.4178 31.8306 25.1185 32.0879 25.8469 32.1671C26.7534 32.2661 27.5966 31.9612 28.4913 31.89C31.389 31.6683 34.4926 33.034 36.5472 35.0728C36.8124 35.334 37.3904 35.1638 37.3469 34.7402C37.0024 31.5218 36.1434 27.8838 34.1562 25.275C33.0042 23.7588 31.0921 22.5633 29.1167 23.1452C26.9711 23.7786 28.804 25.9242 29.7779 26.6922C31.5988 28.1253 34.4293 29.4633 36.7372 28.4895C37.2954 28.2678 36.8203 27.4602 36.2701 27.6898Z" fill="white"/>
<path d="M36.8794 34.7527C36.8794 34.7527 36.8794 34.7527 41.2458 37.8721C43.3993 39.412 45.6122 36.6251 43.7398 35.3782C41.8673 34.1312 36.2539 31.0117 36.2539 31.0117L36.8794 34.7527Z" fill="white"/>
<path d="M36.6472 35.1566C36.9362 35.3625 37.2252 35.5683 37.5142 35.7742C38.1832 36.2532 38.8562 36.7322 39.5252 37.2112C40.4317 37.8564 41.3818 38.7946 42.5654 38.7907C44.3191 38.7828 45.8037 36.5619 44.2875 35.2081C43.7412 34.7172 43.0247 34.3649 42.3992 33.9888C41.6035 33.5137 40.7999 33.0466 39.9963 32.5874C38.8324 31.9184 37.6646 31.2573 36.4928 30.6081C36.1088 30.3943 35.7407 30.7427 35.804 31.1346C36.0138 32.3816 36.2197 33.6285 36.4295 34.8795C36.5285 35.4733 37.431 35.2199 37.3321 34.6301C37.1223 33.3831 36.9164 32.1361 36.7066 30.8852C36.477 31.0594 36.2474 31.2375 36.0178 31.4117C38.3099 32.6864 40.6059 33.965 42.8346 35.3506C43.3176 35.6514 44.0262 35.9761 43.9747 36.6451C43.9272 37.2745 43.3295 37.7733 42.7238 37.8445C42.3081 37.896 41.9123 37.7495 41.5679 37.5279C41.0295 37.1755 40.5148 36.7797 39.9923 36.4036C39.3589 35.9483 38.7216 35.497 38.0882 35.0418C37.7636 34.8082 37.439 34.5786 37.1143 34.3451C36.6274 33.9967 36.1603 34.8082 36.6472 35.1566Z" fill="white"/>
<path d="M36.2563 30.2264C37.5469 30.1987 38.7582 29.7751 39.4985 28.6627C40.1992 27.6058 40.3377 26.244 40.3377 25.0049C40.3377 22.0122 39.4827 19.0115 37.8754 16.4858C34.6649 11.4425 28.7467 8.78224 22.8443 9.75211C17.0211 10.7101 12.1638 15.2309 10.7782 20.9631C9.35312 26.8655 11.7125 33.1321 16.6331 36.6672C19.3567 38.6268 22.7929 39.6243 26.1498 39.4264C30.2708 39.1849 34.3205 36.9918 34.2295 36.8097C34.0197 36.3941 33.509 34.5216 33.0419 34.8304C31.8543 35.6221 28.8734 36.3941 27.3295 36.6078C25.1483 36.9126 22.9868 36.7464 20.9204 35.9586C16.5461 34.288 13.4108 30.0958 13.0584 25.4245C12.7061 20.7216 15.0972 16.1414 19.1825 13.7781C23.3075 11.391 28.6002 11.6325 32.46 14.4392C34.5541 15.9593 36.1336 18.1683 36.961 20.6147C37.3806 21.8499 37.626 23.1483 37.6617 24.4507C37.6973 25.6937 37.5033 27.0872 36.2722 27.6849C35.7298 27.9502 36.2049 28.7538 36.7433 28.4925C39.0235 27.3841 38.7384 24.2686 38.3426 22.1903C37.8636 19.6884 36.6878 17.3251 34.9698 15.4407C31.4901 11.6285 25.94 10.2192 21.055 11.8977C16.2135 13.5643 12.7101 17.9624 12.1598 23.0454C11.5977 28.1996 14.2263 33.334 18.7075 35.9269C21.2965 37.4273 24.2655 37.9419 27.2187 37.55C29.0674 37.3046 31.0625 36.4059 32.646 35.6142C32.646 35.6142 32.8321 36.3861 33.0419 36.8018C33.0419 36.8018 30.2708 37.9894 27.4681 38.3417C24.5545 38.7059 21.6805 38.3615 19.0361 37.0274C14.1233 34.5493 11.0633 29.3357 11.3087 23.8371C11.5542 18.3662 15.1368 13.3901 20.2514 11.4187C25.3818 9.44334 31.304 10.6666 35.1756 14.5817C37.2895 16.7194 38.6751 19.5024 39.1897 22.4595C39.4352 23.8807 39.5539 25.4602 39.2253 26.8774C38.8691 28.4252 37.8517 29.2526 36.2603 29.2843C35.6546 29.3041 35.6507 30.2423 36.2563 30.2264Z" fill="white"/>
<path d="M17.2352 31.4212C17.8092 31.9913 18.4545 32.498 19.1433 32.9295C19.3531 33.0601 19.6659 32.9809 19.7846 32.7632C19.9073 32.5336 19.84 32.2605 19.6184 32.1219C19.4561 32.019 19.2977 31.9161 19.1394 31.8052C19.0641 31.7538 18.9889 31.6983 18.9137 31.6429C18.8741 31.6152 18.8345 31.5835 18.7949 31.5558C18.7435 31.5162 18.8622 31.6073 18.8108 31.5677C18.791 31.5519 18.7672 31.536 18.7474 31.5162C18.4505 31.2787 18.1655 31.0254 17.8963 30.7601C17.7221 30.5859 17.4055 30.5741 17.2352 30.7601C17.065 30.9462 17.0492 31.2352 17.2352 31.4212Z" fill="white"/>
<path d="M15.3209 19.6679C13.6504 22.9021 13.8364 26.8054 15.8554 29.8417C16.1879 30.3405 16.9994 29.8734 16.6629 29.3706C14.8301 26.6154 14.6084 23.0921 16.1285 20.1429C16.4056 19.6085 15.598 19.1335 15.3209 19.6679Z" fill="white"/>
</svg>
